<?xml version="1.0" encoding="UTF-8" standalone="no"?>
<svg xmlns:dc="http://purl.org/dc/elements/1.1/" xmlns:cc="http://creativecommons.org/ns#" xmlns:rdf="http://www.w3.org/1999/02/22-rdf-syntax-ns#" xmlns:svg="http://www.w3.org/2000/svg" xmlns="http://www.w3.org/2000/svg" id="logo" viewBox="0 0 516.95695 990.26792" height="198.05359" width="103.39139" version="1.0">
  <metadata id="metadata89">
    <rdf:RDF>
      <cc:Work rdf:about="">
        <dc:format>image/svg+xml</dc:format>
        <dc:type rdf:resource="http://purl.org/dc/dcmitype/StillImage"/>
        <dc:title/>
      </cc:Work>
    </rdf:RDF>
  </metadata>
  <defs id="defs87"/>
  <path id="path25012" style="fill:#1b5291;fill-opacity:1;fill-rule:nonzero;stroke:none;stroke-width:5.90794516" d="M 7.5818599,669.96096 H 510.05258 V 0 H 7.5818599 Z"/>
  <path id="path25014" style="fill:#ffffff;fill-rule:nonzero;stroke:none;stroke-width:5.90794516" d="m 41.138988,418.75514 c 0,-3.722 2.953972,-6.67598 6.675978,-6.67598 3.722005,0 6.675978,2.95398 6.675978,6.67598 0,3.72201 -2.953973,6.73506 -6.675978,6.73506 -3.722006,0 -6.675978,-3.01305 -6.675978,-6.73506"/>
  <path id="path25016" style="fill:#ffffff;fill-rule:nonzero;stroke:none;stroke-width:5.90794516" d="m 463.1435,418.75514 c 0,-3.722 2.95397,-6.67598 6.67597,-6.67598 3.72201,0 6.73506,2.95398 6.73506,6.67598 0,3.72201 -3.01305,6.73506 -6.73506,6.73506 -3.722,0 -6.67597,-3.01305 -6.67597,-6.73506"/>
  <path id="path25018" style="fill:#ffffff;fill-rule:nonzero;stroke:none;stroke-width:5.90794516" d="m 44.447437,456.56599 c -0.649874,-3.66293 1.772384,-7.14861 5.37623,-7.73941 3.662926,-0.64987 7.148613,1.77238 7.798487,5.43531 0.649874,3.60385 -1.772383,7.08953 -5.435309,7.73941 -3.662926,0.64987 -7.148613,-1.77239 -7.739408,-5.43531"/>
  <path id="path25020" style="fill:#ffffff;fill-rule:nonzero;stroke:none;stroke-width:5.90794516" d="m 460.01229,383.30747 c -0.64988,-3.66293 1.83146,-7.14861 5.4353,-7.79849 3.66293,-0.64987 7.14862,1.77239 7.73941,5.43531 0.70896,3.66293 -1.77238,7.14862 -5.37623,7.79849 -3.66292,0.59079 -7.14861,-1.83146 -7.79848,-5.43531"/>
  <path id="path25022" style="fill:#ffffff;fill-rule:nonzero;stroke:none;stroke-width:5.90794516" d="m 54.254626,493.19525 c -1.299748,-3.42661 0.531715,-7.26677 4.017402,-8.56652 3.426608,-1.24067 7.325852,0.53171 8.566521,4.0174 1.240668,3.48569 -0.531715,7.32585 -4.017403,8.56652 -3.485688,1.29975 -7.325852,-0.53171 -8.56652,-4.0174"/>
  <path id="path25024" style="fill:#ffffff;fill-rule:nonzero;stroke:none;stroke-width:5.90794516" d="m 450.79589,348.86415 c -1.24067,-3.48569 0.53172,-7.26677 4.0174,-8.56652 3.48569,-1.24067 7.32586,0.53172 8.56652,4.0174 1.29975,3.48569 -0.47263,7.32586 -3.95832,8.56652 -3.48569,1.29975 -7.32585,-0.53171 -8.6256,-4.0174"/>
  <path id="path25026" style="fill:#ffffff;fill-rule:nonzero;stroke:none;stroke-width:5.90794516" d="m 70.265157,527.63857 c -1.831463,-3.24937 -0.708954,-7.32585 2.481337,-9.15732 3.19029,-1.89054 7.266772,-0.76803 9.157314,2.42226 1.831463,3.19029 0.708954,7.32585 -2.481337,9.15731 -3.19029,1.83147 -7.266772,0.76804 -9.157314,-2.42225"/>
  <path id="path25028" style="fill:#ffffff;fill-rule:nonzero;stroke:none;stroke-width:5.90794516" d="m 435.73063,316.60677 c -1.83146,-3.19029 -0.70895,-7.32585 2.48134,-9.15731 3.19029,-1.83147 7.32585,-0.76804 9.15731,2.48133 1.83147,3.19029 0.76804,7.26678 -2.48133,9.15732 -3.19029,1.83146 -7.26678,0.70895 -9.15732,-2.48134"/>
  <path id="path25030" style="fill:#ffffff;fill-rule:nonzero;stroke:none;stroke-width:5.90794516" d="m 92.065474,558.71436 c -2.422258,-2.83582 -2.008702,-7.08954 0.827112,-9.45271 2.835814,-2.36318 7.030457,-2.00871 9.393634,0.82711 2.42225,2.83581 2.0087,7.03045 -0.82712,9.45271 -2.835807,2.36318 -7.030448,2.0087 -9.393626,-0.82711"/>
  <path id="path25032" style="fill:#ffffff;fill-rule:nonzero;stroke:none;stroke-width:5.90794516" d="m 415.34822,287.42152 c -2.42226,-2.83581 -2.0087,-7.03045 0.82711,-9.39363 2.83582,-2.42226 7.03046,-2.06778 9.39364,0.76803 2.42225,2.8949 2.0087,7.08954 -0.82712,9.45272 -2.77673,2.36317 -7.03045,2.0087 -9.39363,-0.82712"/>
  <path id="path25034" style="fill:#ffffff;fill-rule:nonzero;stroke:none;stroke-width:5.90794516" d="m 118.88754,585.53643 c -2.83581,-2.36318 -3.19029,-6.6169 -0.82711,-9.45271 2.36318,-2.83582 6.6169,-3.19029 9.45271,-0.82712 2.83581,2.36318 3.19029,6.6169 0.82711,9.45272 -2.42225,2.83581 -6.6169,3.19029 -9.45271,0.82711"/>
  <path id="path25036" style="fill:#ffffff;fill-rule:nonzero;stroke:none;stroke-width:5.90794516" d="m 390.1213,262.25368 c -2.83582,-2.36318 -3.19029,-6.6169 -0.82712,-9.45271 2.42226,-2.83582 6.6169,-3.19029 9.45272,-0.82712 2.83581,2.42226 3.19029,6.6169 0.82711,9.45272 -2.36318,2.83581 -6.55782,3.19029 -9.45271,0.82711"/>
  <path id="path25038" style="fill:#ffffff;fill-rule:nonzero;stroke:none;stroke-width:5.90794516" d="m 149.96333,607.27767 c -3.19029,-1.83147 -4.3128,-5.90795 -2.42226,-9.15732 1.83147,-3.19029 5.90795,-4.25372 9.09824,-2.42226 3.24937,1.83147 4.3128,5.96703 2.48134,9.15732 -1.83147,3.19029 -5.96703,4.3128 -9.15732,2.42226"/>
  <path id="path25040" style="fill:#ffffff;fill-rule:nonzero;stroke:none;stroke-width:5.90794516" d="m 360.99513,241.81219 c -3.24937,-1.83147 -4.3128,-5.90795 -2.48134,-9.15732 1.83146,-3.19029 5.96702,-4.25372 9.15731,-2.42225 3.1903,1.83146 4.3128,5.90794 2.42226,9.15731 -1.83146,3.19029 -5.90794,4.3128 -9.09823,2.42226"/>
  <path id="path25042" style="fill:#ffffff;fill-rule:nonzero;stroke:none;stroke-width:5.90794516" d="m 184.34757,623.34728 c -3.48569,-1.29975 -5.25807,-5.13992 -4.0174,-8.6256 1.29975,-3.42661 5.13991,-5.25807 8.6256,-3.95833 3.48569,1.24067 5.25807,5.08084 4.0174,8.56652 -1.29975,3.48569 -5.13991,5.25807 -8.6256,4.01741"/>
  <path id="path25044" style="fill:#ffffff;fill-rule:nonzero;stroke:none;stroke-width:5.90794516" d="m 328.67867,226.80601 c -3.42661,-1.29975 -5.25807,-5.13991 -3.95833,-8.6256 1.24067,-3.48569 5.08084,-5.25807 8.56653,-4.0174 3.48568,1.29974 5.25807,5.13991 4.0174,8.62559 -1.29975,3.48569 -5.13991,5.25808 -8.6256,4.01741"/>
  <path id="path25046" style="fill:#ffffff;fill-rule:nonzero;stroke:none;stroke-width:5.90794516" d="m 221.03591,633.15446 c -3.66293,-0.64987 -6.08518,-4.13556 -5.43531,-7.7394 0.64987,-3.66293 4.07648,-6.08519 7.73941,-5.43531 3.66292,0.64987 6.08518,4.07648 5.43531,7.73941 -0.64988,3.66292 -4.13556,6.08518 -7.73941,5.4353"/>
  <path id="path25048" style="fill:#ffffff;fill-rule:nonzero;stroke:none;stroke-width:5.90794516" d="m 294.29443,217.58961 c -3.66293,-0.64987 -6.08519,-4.13556 -5.43531,-7.79848 0.64987,-3.60385 4.13556,-6.08519 7.79849,-5.43531 3.60384,0.64987 6.0261,4.13556 5.37623,7.79848 -0.5908,3.60385 -4.07649,6.02611 -7.73941,5.43531"/>
  <path id="path25050" style="fill:#ffffff;fill-rule:nonzero;stroke:none;stroke-width:5.90794516" d="m 258.78768,636.46291 c -3.66293,0 -6.67598,-3.01305 -6.67598,-6.67597 0,-3.72201 3.01305,-6.73506 6.67598,-6.73506 3.722,0 6.73506,3.01305 6.73506,6.73506 0,3.66292 -3.01306,6.67597 -6.73506,6.67597"/>
  <path id="path25052" style="fill:#ffffff;fill-rule:nonzero;stroke:none;stroke-width:5.90794516" d="m 258.84676,214.4584 c -3.72201,0 -6.73506,-3.01305 -6.73506,-6.67598 0,-3.722 3.01305,-6.73505 6.73506,-6.73505 3.66292,0 6.67598,3.01305 6.67598,6.73505 0,3.66293 -3.01306,6.67598 -6.67598,6.67598"/>
  <path id="path25054" style="fill:#ffffff;fill-rule:nonzero;stroke:none;stroke-width:5.90794516" d="m 296.59853,633.15446 c -3.60385,0.64988 -7.08954,-1.77238 -7.73941,-5.4353 -0.64988,-3.66293 1.77238,-7.08954 5.43531,-7.73941 3.66292,-0.64988 7.14861,1.77238 7.73941,5.43531 0.64987,3.60384 -1.77239,7.08953 -5.43531,7.7394"/>
  <path id="path25056" style="fill:#ffffff;fill-rule:nonzero;stroke:none;stroke-width:5.90794516" d="m 223.34001,217.58961 c -3.66293,0.5908 -7.08954,-1.83146 -7.73941,-5.43531 -0.64987,-3.66292 1.77238,-7.14861 5.43531,-7.79848 3.60385,-0.64988 7.08953,1.83146 7.73941,5.43531 0.64987,3.66292 -1.77239,7.14861 -5.43531,7.79848"/>
  <path id="path25058" style="fill:#ffffff;fill-rule:nonzero;stroke:none;stroke-width:5.90794516" d="m 333.28687,623.34728 c -3.48569,1.24066 -7.32586,-0.53172 -8.56653,-4.01741 -1.29974,-3.48568 0.47264,-7.32585 3.95833,-8.56652 3.48569,-1.29974 7.32585,0.53172 8.56652,3.95833 1.29975,3.48568 -0.47264,7.32585 -3.95832,8.6256"/>
  <path id="path25060" style="fill:#ffffff;fill-rule:nonzero;stroke:none;stroke-width:5.90794516" d="m 188.95577,226.80601 c -3.48569,1.24067 -7.32585,-0.53172 -8.56652,-4.01741 -1.29975,-3.48568 0.53171,-7.32585 3.95832,-8.56652 3.48569,-1.29974 7.32585,0.53172 8.6256,3.95833 1.24067,3.48569 -0.53171,7.32585 -4.0174,8.6256"/>
  <path id="path25062" style="fill:#ffffff;fill-rule:nonzero;stroke:none;stroke-width:5.90794516" d="m 367.6711,607.27767 c -3.19029,1.83146 -7.32585,0.76803 -9.15731,-2.42226 -1.83146,-3.19029 -0.76803,-7.32585 2.42226,-9.15732 3.24937,-1.83146 7.32585,-0.76803 9.15731,2.42226 1.89054,3.24937 0.76804,7.32585 -2.42226,9.15732"/>
  <path id="path25064" style="fill:#ffffff;fill-rule:nonzero;stroke:none;stroke-width:5.90794516" d="m 156.69839,241.81219 c -3.19029,1.89054 -7.32585,0.76803 -9.15732,-2.42226 -1.89054,-3.19029 -0.76803,-7.32585 2.42226,-9.15731 3.24937,-1.83147 7.32585,-0.76804 9.15732,2.42225 1.83146,3.24937 0.76803,7.32585 -2.42226,9.15732"/>
  <path id="path25066" style="fill:#ffffff;fill-rule:nonzero;stroke:none;stroke-width:5.90794516" d="m 398.7469,585.53643 c -2.83582,2.36318 -7.03046,2.0087 -9.45272,-0.82711 -2.36317,-2.83582 -2.0087,-7.08954 0.82712,-9.45272 2.83581,-2.36317 7.08953,-2.0087 9.45271,0.82712 2.36318,2.83581 2.0087,7.08953 -0.82711,9.45271"/>
  <path id="path25068" style="fill:#ffffff;fill-rule:nonzero;stroke:none;stroke-width:5.90794516" d="m 127.51314,262.25368 c -2.83581,2.36318 -7.03045,2.0087 -9.45271,-0.82711 -2.36318,-2.83582 -2.0087,-7.03046 0.82711,-9.45272 2.83581,-2.36317 7.08954,-2.0087 9.45271,0.82712 2.36318,2.83581 2.0087,7.08953 -0.82711,9.45271"/>
  <path id="path25070" style="fill:#ffffff;fill-rule:nonzero;stroke:none;stroke-width:5.90794516" d="m 425.56897,558.71436 c -2.36318,2.83581 -6.55782,3.19029 -9.45272,0.82711 -2.77673,-2.42226 -3.19029,-6.6169 -0.82711,-9.45271 2.42226,-2.83582 6.6169,-3.19029 9.45271,-0.82711 2.83582,2.36317 3.19029,6.61689 0.82712,9.45271"/>
  <path id="path25072" style="fill:#ffffff;fill-rule:nonzero;stroke:none;stroke-width:5.90794516" d="m 102.3453,287.42152 c -2.363177,2.83582 -6.6169,3.24937 -9.452714,0.82712 -2.835814,-2.36318 -3.19029,-6.55782 -0.827112,-9.39364 2.363178,-2.83581 6.616899,-3.24937 9.452706,-0.82711 2.83582,2.36318 3.19029,6.55782 0.82712,9.39363"/>
  <path id="path25074" style="fill:#ffffff;fill-rule:nonzero;stroke:none;stroke-width:5.90794516" d="m 447.36928,527.63857 c -1.89054,3.19029 -5.96702,4.25372 -9.15731,2.42225 -3.24937,-1.83146 -4.3128,-5.96702 -2.48134,-9.15731 1.89054,-3.19029 5.96703,-4.3128 9.15732,-2.42226 3.19029,1.83147 4.3128,5.90795 2.48133,9.15732"/>
  <path id="path25076" style="fill:#ffffff;fill-rule:nonzero;stroke:none;stroke-width:5.90794516" d="m 81.903808,316.60677 c -1.831463,3.19029 -5.967024,4.3128 -9.157314,2.48134 -3.190291,-1.89054 -4.3128,-5.96703 -2.422258,-9.15732 1.831463,-3.19029 5.907945,-4.3128 9.098235,-2.48133 3.24937,1.83146 4.3128,5.96702 2.481337,9.15731"/>
  <path id="path25078" style="fill:#ffffff;fill-rule:nonzero;stroke:none;stroke-width:5.90794516" d="m 463.37981,493.19525 c -1.24066,3.48569 -5.08083,5.31715 -8.56652,4.0174 -3.48568,-1.24067 -5.31715,-5.08083 -4.0174,-8.56652 1.24067,-3.48569 5.08083,-5.25807 8.56652,-4.0174 3.48569,1.29975 5.25807,5.13991 4.0174,8.56652"/>
  <path id="path25080" style="fill:#ffffff;fill-rule:nonzero;stroke:none;stroke-width:5.90794516" d="m 66.838549,348.86415 c -1.240669,3.48569 -5.080833,5.31715 -8.566521,4.0174 -3.485687,-1.24066 -5.258071,-5.08083 -4.017402,-8.56652 1.299748,-3.48568 5.139912,-5.25807 8.625599,-4.0174 3.426609,1.29975 5.258071,5.08083 3.958324,8.56652"/>
  <path id="path25082" style="fill:#ffffff;fill-rule:nonzero;stroke:none;stroke-width:5.90794516" d="m 473.187,456.56599 c -0.64987,3.66292 -4.13556,6.08518 -7.73941,5.43531 -3.66292,-0.64988 -6.08518,-4.13556 -5.4353,-7.73941 0.64987,-3.66293 4.13556,-6.08518 7.7394,-5.43531 3.66293,0.64987 6.08519,4.13556 5.43531,7.73941"/>
  <path id="path25084" style="fill:#ffffff;fill-rule:nonzero;stroke:none;stroke-width:5.90794516" d="m 57.622154,383.30747 c -0.649874,3.60385 -4.076482,6.0261 -7.739408,5.43531 -3.662925,-0.64987 -6.085183,-4.13556 -5.435309,-7.79849 0.649874,-3.66292 4.135562,-6.08518 7.739408,-5.43531 3.662926,0.64988 6.085183,4.13556 5.435309,7.79849"/>
  <path id="path25086" style="fill:#1b5291;fill-rule:nonzero;stroke:#1b5291;stroke-width:2.91000009;stroke-miterlimit:4;stroke-dasharray:none;stroke-opacity:1" d="m 41.9661,988.16288 v -43.89603 h -5.967024 v 18.61002 H 13.607964 V 944.26685 H 7.6409399 v 43.89603 h 5.9670241 v -20.20517 h 22.391112 v 20.20517 H 41.9661"/>
  <path id="path25088" style="fill:#1b5291;fill-rule:nonzero;stroke:#1b5291;stroke-width:2.91000009;stroke-miterlimit:4;stroke-dasharray:none;stroke-opacity:1" d="m 86.571085,944.26685 h -6.203342 l -6.794137,14.06091 c -0.649874,1.4179 -1.358827,2.83581 -2.008701,4.25372 -0.649874,1.4179 -1.240669,2.77673 -1.772384,4.13556 h -0.05908 c -0.945272,-2.48134 -2.067781,-5.02175 -3.30845,-7.62125 l -6.912295,-14.82894 h -6.616899 l 13.765512,28.12182 v 15.77421 h 5.967025 v -15.77421 l 13.94275,-28.12182"/>
  <path id="path25090" style="fill:#1b5291;fill-rule:evenodd;stroke:#1b5291;stroke-width:2.91000009;stroke-miterlimit:4;stroke-dasharray:none;stroke-opacity:1" d="m 133.00753,965.71269 c -0.0591,-7.50309 -2.0087,-12.99748 -5.90795,-16.42409 -3.89924,-3.48569 -9.39363,-5.25807 -16.48316,-5.19899 -2.48134,0 -4.84452,0.0591 -7.08954,0.11816 -2.30409,0.0591 -4.312797,0.11816 -6.026097,0.11816 v 43.83695 c 1.59515,0 3.308447,0.0591 5.080827,0.11816 1.83147,0.0591 3.78109,0.11816 6.02611,0.11816 4.78543,0 9.03915,-0.82711 12.70208,-2.54042 3.66292,-1.7133 6.49874,-4.19464 8.56652,-7.56217 2.06778,-3.36753 3.13121,-7.56217 3.13121,-12.58392 z m -6.26242,0.41355 c -0.11816,5.90795 -1.71331,10.27983 -4.9036,13.05656 -3.19029,2.83582 -7.38493,4.19464 -12.58392,4.19464 -0.94527,0 -1.89054,-0.0591 -2.95397,-0.11815 -1.06343,-0.0591 -2.0087,-0.17724 -2.83582,-0.2954 v -33.79345 c 0.82712,-0.0591 1.83147,-0.11816 3.01306,-0.11816 1.18159,-0.0591 2.36317,-0.0591 3.54476,-0.11816 5.67163,0.0591 9.86627,1.47699 12.58393,4.43096 2.77673,2.8949 4.13556,7.14862 4.13556,12.76116"/>
  <path id="path25092" style="fill:#1b5291;fill-rule:evenodd;stroke:#1b5291;stroke-width:2.91000009;stroke-miterlimit:4;stroke-dasharray:none;stroke-opacity:1" d="m 175.3675,988.16288 -12.40669,-15.65605 c -0.59079,-0.76804 -1.24067,-1.53607 -1.89054,-2.3041 -0.64988,-0.82712 -1.29975,-1.59515 -1.94962,-2.36318 3.89924,-0.2954 7.08953,-1.47699 9.57087,-3.60385 2.48133,-2.12686 3.722,-5.02175 3.84016,-8.80284 -0.11816,-4.13556 -1.47698,-7.08953 -4.19464,-8.86191 -2.77673,-1.71331 -6.3215,-2.5995 -10.69338,-2.54042 -2.36318,0 -4.43096,0 -6.20334,0.0591 -1.71331,0.0591 -3.30845,0.11816 -4.78544,0.17724 v 43.89603 h 5.96703 v -19.67346 h 0.23631 l 14.88803,19.67346 z m -9.09824,-31.9029 c 0,2.36317 -0.88619,4.25372 -2.5995,5.67162 -1.7133,1.41791 -4.19464,2.12686 -7.32585,2.18594 -0.88619,0 -1.65422,-0.0591 -2.3041,-0.0591 -0.59079,0 -1.06343,-0.0591 -1.4179,-0.0591 v -14.9471 c 0.59079,-0.0591 1.18159,-0.11816 1.83146,-0.11816 0.70895,0 1.41791,-0.0591 2.12686,-0.0591 3.19029,0 5.61255,0.53171 7.26677,1.7133 1.59515,1.18159 2.42226,3.07213 2.42226,5.67163"/>
  <path id="path25094" style="fill:#1b5291;fill-rule:evenodd;stroke:#1b5291;stroke-width:2.91000009;stroke-miterlimit:4;stroke-dasharray:none;stroke-opacity:1" d="m 224.81699,965.71269 c -0.0591,-7.20769 -1.83146,-12.70208 -5.31715,-16.42409 -3.48568,-3.722 -8.21204,-5.61255 -14.23814,-5.67163 -3.84017,0.0591 -7.32585,0.94528 -10.45707,2.77674 -3.13121,1.77238 -5.61254,4.43096 -7.44401,7.85757 -1.89054,3.4266 -2.83581,7.56216 -2.89489,12.46576 0,6.73506 1.59515,12.11129 4.84452,16.01053 3.24937,3.95832 8.15296,5.96702 14.71078,6.08518 3.89924,-0.0591 7.38493,-0.94527 10.51614,-2.77673 3.13121,-1.77238 5.61255,-4.37188 7.44401,-7.79849 1.89054,-3.48569 2.83581,-7.62125 2.83581,-12.52484 z m -6.3215,0.70895 c -0.0591,3.78109 -0.70895,6.9123 -2.06778,9.45271 -1.29974,2.54042 -2.95397,4.43096 -5.08083,5.67163 -2.06778,1.29975 -4.37188,1.94962 -6.79414,1.94962 -4.60819,-0.11816 -8.09388,-1.7133 -10.3389,-4.90359 -2.24502,-3.19029 -3.36753,-7.44401 -3.36753,-12.76116 0.0591,-3.66293 0.70895,-6.73506 1.94962,-9.27548 1.29975,-2.54041 2.95398,-4.43095 5.02176,-5.7307 2.06778,-1.29975 4.37188,-1.94962 6.79413,-1.94962 4.43096,0.0591 7.85757,1.53606 10.22075,4.54911 2.42226,3.01305 3.60384,7.38493 3.66292,12.99748"/>
  <path id="path25096" style="fill:#1b5291;fill-rule:nonzero;stroke:#1b5291;stroke-width:2.91000009;stroke-miterlimit:4;stroke-dasharray:none;stroke-opacity:1" d="m 271.43068,945.5666 c -1.94962,-0.5908 -3.95832,-1.06343 -5.90794,-1.35883 -2.00871,-0.35448 -4.01741,-0.53172 -6.14427,-0.53172 -4.90359,0.0591 -9.15731,1.12251 -12.70208,3.07214 -3.54477,2.06778 -6.20334,4.78543 -8.09388,8.3302 -1.94963,3.48569 -2.8949,7.50309 -2.8949,11.99313 0.0591,6.85321 2.06778,12.17036 5.90795,15.95145 3.84016,3.78108 9.15731,5.67162 15.83329,5.7307 2.48134,-0.0591 4.96268,-0.23631 7.44401,-0.70895 2.48134,-0.41356 4.84452,-1.00435 7.08954,-1.83146 v -20.44149 h -5.90795 v 16.60132 c -1.18159,0.35448 -2.42226,0.64988 -3.66292,0.82712 -1.29975,0.23631 -2.65858,0.35447 -4.07649,0.35447 -5.02175,-0.0591 -8.98007,-1.53606 -11.87497,-4.49004 -2.83581,-2.95397 -4.3128,-7.20769 -4.37188,-12.70208 0,-3.89924 0.82712,-7.14861 2.3041,-9.74811 1.53607,-2.59949 3.54477,-4.54911 6.08519,-5.84886 2.54041,-1.29975 5.31715,-1.94962 8.3302,-1.94962 2.06778,0 4.07648,0.23631 6.0261,0.59079 1.94962,0.41356 3.89925,1.00435 5.67163,1.77238 l 0.94527,-5.61254"/>
  <path id="path25098" style="fill:#1b5291;fill-rule:evenodd;stroke:#1b5291;stroke-width:2.91000009;stroke-miterlimit:4;stroke-dasharray:none;stroke-opacity:1" d="m 316.68554,988.16288 -12.40668,-15.65605 c -0.5908,-0.76804 -1.18159,-1.53607 -1.83147,-2.3041 -0.64987,-0.82712 -1.29975,-1.59515 -1.94962,-2.36318 3.89924,-0.2954 7.08953,-1.47699 9.51179,-3.60385 2.48134,-2.12686 3.78109,-5.02175 3.84017,-8.80284 -0.0591,-4.13556 -1.47699,-7.08953 -4.19464,-8.86191 -2.71766,-1.71331 -6.26243,-2.5995 -10.69339,-2.54042 -2.36317,0 -4.43095,0 -6.14426,0.0591 -1.77238,0.0591 -3.36753,0.11816 -4.84451,0.17724 v 43.89603 h 5.96702 v -19.67346 h 0.2954 l 14.88802,19.67346 z m -9.09824,-31.9029 c 0,2.36317 -0.82711,4.25372 -2.59949,5.67162 -1.71331,1.41791 -4.13556,2.12686 -7.32585,2.18594 -0.8862,0 -1.65423,-0.0591 -2.24502,-0.0591 -0.64988,0 -1.12251,-0.0591 -1.47699,-0.0591 v -14.9471 c 0.5908,-0.0591 1.24067,-0.11816 1.89054,-0.11816 0.64988,0 1.35883,-0.0591 2.12686,-0.0591 3.19029,0 5.55347,0.53171 7.2077,1.7133 1.65422,1.18159 2.42225,3.07213 2.42225,5.67163"/>
  <path id="path25100" style="fill:#1b5291;fill-rule:evenodd;stroke:#1b5291;stroke-width:2.91000009;stroke-miterlimit:4;stroke-dasharray:none;stroke-opacity:1" d="m 362.59027,988.16288 -16.12869,-43.89603 h -6.6169 l -15.95145,43.89603 h 6.08519 l 3.66292,-10.27982 h 18.61003 l 3.66292,10.27982 z M 350.65622,973.1567 h -15.47881 l 5.67162,-15.59698 c 0.41356,-1.12251 0.76804,-2.24501 1.12251,-3.36752 0.2954,-1.12251 0.64988,-2.18594 0.8862,-3.24937 h 0.11815 c 0.23632,1.12251 0.53172,2.18594 0.82712,3.24937 0.35447,1.12251 0.70895,2.18594 1.12251,3.30845 l 5.7307,15.65605"/>
  <path id="path25102" style="fill:#1b5291;fill-rule:evenodd;stroke:#1b5291;stroke-width:2.91000009;stroke-miterlimit:4;stroke-dasharray:none;stroke-opacity:1" d="m 400.28296,956.90985 c 0,-3.95832 -1.35883,-7.08953 -4.0174,-9.39363 -2.71766,-2.24502 -6.55782,-3.42661 -11.63865,-3.48569 -2.0087,0 -3.84017,0 -5.67163,0.0591 -1.77238,0.0591 -3.48569,0.11816 -5.13991,0.17724 v 43.89603 h 5.96702 v -16.77856 c 0.64988,0.0591 1.24067,0.11815 1.83147,0.11815 0.59079,0 1.1225,0 1.7133,0 5.08083,-0.0591 9.15731,-1.4179 12.22945,-4.07648 3.07213,-2.65857 4.66727,-6.14426 4.72635,-10.51614 z m -6.20334,0.5908 c -0.0591,2.77673 -1.00435,4.96267 -2.89489,6.55781 -1.89055,1.65423 -4.49004,2.48134 -7.79849,2.54042 -0.5908,0 -1.24067,-0.0591 -1.83146,-0.0591 -0.5908,-0.0591 -1.18159,-0.11816 -1.77239,-0.23632 v -17.2512 c 0.64988,-0.0591 1.29975,-0.0591 1.94962,-0.0591 0.70896,-0.0591 1.41791,-0.0591 2.24502,-0.0591 3.42661,0.0591 5.96703,0.76804 7.62125,2.24502 1.65423,1.47699 2.48134,3.54477 2.48134,6.32151"/>
  <path id="path25104" style="fill:#1b5291;fill-rule:nonzero;stroke:#1b5291;stroke-width:2.91000009;stroke-miterlimit:4;stroke-dasharray:none;stroke-opacity:1" d="m 447.36928,988.16288 v -43.89603 h -5.96702 v 18.61002 h -22.39111 v -18.61002 h -5.96703 v 43.89603 h 5.96703 v -20.20517 h 22.39111 v 20.20517 h 5.96702"/>
  <path id="path25106" style="fill:#1b5291;fill-rule:nonzero;stroke:#1b5291;stroke-width:2.91000009;stroke-miterlimit:4;stroke-dasharray:none;stroke-opacity:1" d="m 464.44324,988.16288 h 5.90795 v -43.89603 h -5.90795 z"/>
  <path id="path25108" style="fill:#1b5291;fill-rule:nonzero;stroke:#1b5291;stroke-width:2.91000009;stroke-miterlimit:4;stroke-dasharray:none;stroke-opacity:1" d="m 509.9935,988.16288 v -5.02175 h -16.54225 v -15.18342 h 15.77422 v -4.84452 h -15.77422 v -13.88367 h 16.54225 v -4.96267 h -22.50927 v 43.89603 h 22.50927"/>
  <path id="path25110" style="fill:#1b5291;fill-rule:nonzero;stroke:#1b5291;stroke-width:2.91000009;stroke-miterlimit:4;stroke-dasharray:none;stroke-opacity:1" d="m 41.552544,894.58103 v -27.11747 h -5.789786 v 27.59011 c 0,4.37188 -0.945271,7.44401 -2.776734,9.33455 -1.831463,1.83146 -4.667277,2.71765 -8.507441,2.65857 -4.3128,-0.0591 -7.207693,-1.1225 -8.743759,-3.19029 -1.476986,-2.0087 -2.185939,-4.60819 -2.12686,-7.7394 V 867.46356 H 7.6409399 v 29.12617 c 0,2.65858 0.354476,5.13991 1.240668,7.44401 0.827112,2.36318 2.4813371,4.25372 4.8445151,5.67163 2.422257,1.47699 5.848866,2.24502 10.397983,2.3041 5.730707,0 10.043507,-1.47699 12.997479,-4.43096 2.953973,-2.89489 4.430959,-7.26677 4.430959,-12.99748"/>
  <path id="path25112" style="fill:#1b5291;fill-rule:nonzero;stroke:#1b5291;stroke-width:2.91000009;stroke-miterlimit:4;stroke-dasharray:none;stroke-opacity:1" d="M 89.643216,911.35959 V 867.46356 H 83.85343 v 12.52485 c 0,2.42225 0.05908,5.13991 0.05908,8.09388 0.05908,2.95397 0.118159,5.73071 0.177238,8.44836 0.05908,2.77674 0.177238,5.02176 0.236318,6.9123 -0.827113,-1.59515 -1.654225,-3.19029 -2.540417,-4.78544 -0.945271,-1.65422 -1.890542,-3.24937 -2.835813,-4.84451 L 62.643908,867.46356 h -7.857567 v 43.89603 h 5.789786 v -14.11998 c 0,-2.36318 0,-4.96268 -0.05908,-7.79849 0,-2.83581 -0.05908,-5.49439 -0.118158,-8.09389 -0.118159,-2.54041 -0.177239,-4.66727 -0.236318,-6.26242 0.708953,1.47699 1.476986,2.95397 2.245019,4.43096 0.827112,1.53607 1.772383,3.07213 2.717655,4.66728 l 16.719484,27.17654 h 7.798487"/>
  <path id="path25114" style="fill:#1b5291;fill-rule:evenodd;stroke:#1b5291;stroke-width:2.91000009;stroke-miterlimit:4;stroke-dasharray:none;stroke-opacity:1" d="m 138.561,888.9094 c -0.0591,-7.50309 -2.06778,-12.99748 -5.96703,-16.42408 -3.89924,-3.48569 -9.39363,-5.25807 -16.48316,-5.199 -2.42226,0 -4.78544,0.0591 -7.08954,0.11816 -2.3041,0.0591 -4.3128,0.11816 -6.0261,0.17724 v 43.77787 c 1.59514,0 3.30845,0.0591 5.13991,0.11816 1.77238,0.0591 3.78109,0.11816 5.96703,0.11816 4.84451,0 9.09823,-0.82711 12.70208,-2.54041 3.66292,-1.71331 6.55782,-4.19464 8.6256,-7.56217 2.0087,-3.36753 3.07213,-7.56217 3.13121,-12.58393 z m -6.3215,0.41356 c -0.0591,5.90794 -1.71331,10.27982 -4.9036,13.05656 -3.13121,2.83581 -7.32585,4.19464 -12.58392,4.19464 -0.88619,0 -1.89054,-0.0591 -2.95397,-0.11816 -1.00435,-0.0591 -1.94962,-0.17724 -2.83582,-0.2954 v -33.79344 c 0.8862,-0.0591 1.89055,-0.11816 3.07213,-0.11816 1.18159,-0.0591 2.36318,-0.0591 3.48569,-0.11816 5.67163,0.0591 9.92535,1.47699 12.643,4.43096 2.71766,2.89489 4.13557,7.14861 4.07649,12.76116"/>
  <path id="path25116" style="fill:#1b5291;fill-rule:nonzero;stroke:#1b5291;stroke-width:2.91000009;stroke-miterlimit:4;stroke-dasharray:none;stroke-opacity:1" d="m 31.449958,821.61791 c -0.118159,-3.36753 -1.12251,-5.84887 -3.131211,-7.56217 -1.949622,-1.65422 -4.194641,-2.95397 -6.794137,-3.89924 -2.599495,-0.94527 -4.844514,-2.0087 -6.794136,-3.13121 -2.008702,-1.18159 -3.013052,-2.8949 -3.131211,-5.199 0,-2.06778 0.768033,-3.722 2.304098,-4.90359 1.536066,-1.24067 3.840165,-1.89054 6.794137,-1.89054 1.358827,0 2.658575,0.11816 4.017403,0.29539 1.358827,0.23632 2.658575,0.53172 3.958323,0.8862 l 0.295397,-5.31715 c -1.299748,-0.2954 -2.599496,-0.47264 -3.958323,-0.5908 -1.299748,-0.11816 -2.599496,-0.23632 -3.958323,-0.23632 -4.962674,0.11816 -8.802838,1.24067 -11.5204931,3.54477 -2.658575,2.24502 -4.0764819,5.19899 -4.0764819,8.921 0.1181588,3.36753 1.1225095,5.90794 3.0721309,7.62125 1.9496221,1.65422 4.2537211,2.95397 6.7941371,3.84016 2.599496,0.94527 4.844515,2.0087 6.794137,3.13121 1.949622,1.18159 3.013052,2.95397 3.072131,5.31715 -0.05908,2.71766 -1.00435,4.6082 -2.835813,5.78979 -1.772384,1.18159 -4.076482,1.77238 -6.794137,1.77238 -1.536066,0 -3.072131,-0.17724 -4.667277,-0.47263 -1.5951451,-0.2954 -3.0721311,-0.70896 -4.3127995,-1.18159 l -0.3544767,5.7307 c 1.2997481,0.35448 2.6585751,0.5908 4.1946412,0.76804 1.476986,0.17724 3.072131,0.29539 4.667276,0.29539 5.139913,-0.11815 9.157315,-1.35882 11.993129,-3.84016 2.835813,-2.48134 4.3128,-5.67163 4.371879,-9.68903"/>
  <path id="path25118" style="fill:#1b5291;fill-rule:nonzero;stroke:#1b5291;stroke-width:2.91000009;stroke-miterlimit:4;stroke-dasharray:none;stroke-opacity:1" d="m 65.538801,834.55631 v -5.02175 H 48.996555 v -15.18342 h 15.774213 v -4.84452 H 48.996555 v -13.88367 h 16.542246 v -4.96267 H 43.02953 v 43.89603 h 22.509271"/>
  <path id="path25120" style="fill:#1b5291;fill-rule:nonzero;stroke:#1b5291;stroke-width:2.91000009;stroke-miterlimit:4;stroke-dasharray:none;stroke-opacity:1" d="m 100.92739,834.55631 v -5.02175 H 84.326066 v -15.18342 h 15.774214 v -4.84452 H 84.326066 v -13.88367 h 16.601324 v -4.96267 H 78.359041 v 43.89603 h 22.568349"/>
  <path id="path25122" style="fill:#1b5291;fill-rule:nonzero;stroke:#1b5291;stroke-width:2.91000009;stroke-miterlimit:4;stroke-dasharray:none;stroke-opacity:1" d="m 137.49757,821.61791 c -0.11816,-3.36753 -1.12251,-5.84887 -3.13121,-7.56217 -1.94962,-1.65422 -4.19464,-2.95397 -6.79414,-3.89924 -2.5995,-0.94527 -4.84451,-2.0087 -6.79414,-3.13121 -1.94962,-1.18159 -3.01305,-2.8949 -3.13121,-5.199 0,-2.06778 0.76804,-3.722 2.3041,-4.90359 1.53607,-1.24067 3.84017,-1.89054 6.79414,-1.89054 1.35883,0 2.65857,0.11816 4.0174,0.29539 1.35883,0.23632 2.65858,0.53172 3.95832,0.8862 l 0.2954,-5.31715 c -1.29975,-0.2954 -2.59949,-0.47264 -3.95832,-0.5908 -1.29975,-0.11816 -2.5995,-0.23632 -3.95833,-0.23632 -4.96267,0.11816 -8.80283,1.24067 -11.52049,3.54477 -2.65857,2.24502 -4.0174,5.19899 -4.07648,8.921 0.11816,3.36753 1.12251,5.90794 3.07213,7.62125 1.94962,1.65422 4.25372,2.95397 6.79414,3.84016 2.59949,0.94527 4.84451,2.0087 6.79413,3.13121 1.94963,1.18159 3.01306,2.95397 3.07214,5.31715 -0.0591,2.71766 -1.00435,4.6082 -2.83582,5.78979 -1.83146,1.18159 -4.07648,1.77238 -6.79413,1.77238 -1.53607,0 -3.13122,-0.17724 -4.66728,-0.47263 -1.59515,-0.2954 -3.01305,-0.70896 -4.3128,-1.18159 l -0.35448,5.7307 c 1.29975,0.35448 2.65858,0.5908 4.19464,0.76804 1.47699,0.17724 3.01306,0.29539 4.66728,0.29539 5.13991,-0.11815 9.15731,-1.35882 11.99313,-3.84016 2.83581,-2.48134 4.3128,-5.67163 4.37188,-9.68903"/>
  <path id="path25124" style="fill:#1b5291;fill-rule:nonzero;stroke:#1b5291;stroke-width:2.91000009;stroke-miterlimit:4;stroke-dasharray:none;stroke-opacity:1" d="m 178.38055,832.84301 -0.64988,-5.31715 c -1.35882,0.64987 -2.95397,1.18158 -4.72635,1.59514 -1.77239,0.41356 -3.48569,0.59079 -5.08084,0.64987 -5.13991,-0.0591 -8.86191,-1.53606 -11.28417,-4.49003 -2.42226,-2.8949 -3.66293,-7.08954 -3.60385,-12.52485 0,-3.24937 0.47264,-6.14426 1.47699,-8.74376 1.00435,-2.59949 2.54042,-4.66727 4.66728,-6.20334 2.06778,-1.53606 4.78543,-2.3041 8.15296,-2.3041 1.65422,0 3.30845,0.11816 4.90359,0.35448 1.65423,0.2954 3.30845,0.64987 5.02176,1.18159 l 0.64987,-5.43531 c -1.59514,-0.41356 -3.19029,-0.70895 -4.90359,-0.94527 -1.65423,-0.23632 -3.36753,-0.35448 -5.02176,-0.35448 -4.96267,0 -8.98007,1.06343 -12.17036,3.07213 -3.13121,2.06778 -5.49439,4.84452 -7.03046,8.33021 -1.53606,3.54476 -2.24502,7.50309 -2.24502,12.0522 0,4.13556 0.64988,7.79849 2.0087,10.98878 1.41791,3.19029 3.54477,5.73071 6.49874,7.50309 2.95398,1.83146 6.73506,2.77674 11.40234,2.83581 2.24502,-0.0591 4.37188,-0.23631 6.38058,-0.64987 2.0087,-0.35448 3.84016,-0.88619 5.55347,-1.59514"/>
  <path id="path25126" style="fill:#1b5291;fill-rule:nonzero;stroke:#1b5291;stroke-width:2.91000009;stroke-miterlimit:4;stroke-dasharray:none;stroke-opacity:1" d="m 224.5216,834.55631 v -43.89603 h -5.96703 v 18.61002 h -22.39111 v -18.61002 h -5.96702 v 43.89603 h 5.96702 v -20.20517 h 22.39111 v 20.20517 h 5.96703"/>
  <path id="path25128" style="fill:#1b5291;fill-opacity:1;fill-rule:nonzero;stroke:#1b5291;stroke-width:2.91000009;stroke-miterlimit:4;stroke-dasharray:none;stroke-opacity:1" d="m 239.1733,834.55631 h 5.96703 v -43.89603 h -5.96703 z"/>
  <path id="path25130" style="fill:#1b5291;fill-rule:nonzero;stroke:#1b5291;stroke-width:2.91000009;stroke-miterlimit:4;stroke-dasharray:none;stroke-opacity:1" d="m 282.18314,795.62295 v -4.96267 h -22.33203 v 43.89603 h 5.96702 v -19.90978 h 15.5379 v -4.78543 h -15.5379 v -14.23815 h 16.36501"/>
  <path id="path25132" style="fill:#1b5291;fill-rule:nonzero;stroke:#1b5291;stroke-width:2.91000009;stroke-miterlimit:4;stroke-dasharray:none;stroke-opacity:1" d="m 315.50395,795.62295 v -4.96267 h -22.33203 v 43.89603 h 5.96702 v -19.90978 h 15.47882 v -4.78543 h -15.47882 v -14.23815 h 16.36501"/>
  <path id="path25134" style="fill:#1b5291;fill-rule:nonzero;stroke:#1b5291;stroke-width:2.91000009;stroke-miterlimit:4;stroke-dasharray:none;stroke-opacity:1" d="m 348.82476,795.62295 v -4.96267 h -22.39111 v 43.89603 h 5.96702 v -19.90978 h 15.5379 v -4.78543 h -15.5379 v -14.23815 h 16.42409"/>
  <path id="path25136" style="fill:#1b5291;fill-rule:evenodd;stroke:#1b5291;stroke-width:2.91000009;stroke-miterlimit:4;stroke-dasharray:none;stroke-opacity:1" d="m 391.36196,834.55631 -16.12869,-43.89603 h -6.61689 l -16.01053,43.89603 h 6.14426 l 3.60384,-10.27982 h 18.66911 l 3.66293,10.27982 z m -11.99312,-15.00618 h -15.47882 l 5.67163,-15.59698 c 0.41355,-1.12251 0.82711,-2.24501 1.12251,-3.36752 0.35447,-1.12251 0.64987,-2.18594 0.88619,-3.24937 h 0.17724 c 0.23631,1.12251 0.53171,2.18594 0.82711,3.24937 0.2954,1.12251 0.64987,2.18594 1.12251,3.30845 l 5.67163,15.65605"/>
  <path id="path25138" style="fill:#1b5291;fill-rule:nonzero;stroke:#1b5291;stroke-width:2.91000009;stroke-miterlimit:4;stroke-dasharray:none;stroke-opacity:1" d="m 434.48996,834.55631 v -43.89603 h -5.96702 v 18.61002 h -22.39111 v -18.61002 h -5.96703 v 43.89603 h 5.96703 v -20.20517 h 22.39111 v 20.20517 h 5.96702"/>
  <path id="path25140" style="fill:#1b5291;fill-rule:evenodd;stroke:#1b5291;stroke-width:2.91000009;stroke-miterlimit:4;stroke-dasharray:none;stroke-opacity:1" d="m 477.85428,834.55631 -12.40669,-15.65605 c -0.59079,-0.76804 -1.24066,-1.47699 -1.89054,-2.3041 -0.64987,-0.82712 -1.29975,-1.59515 -1.94962,-2.36318 3.89924,-0.2954 7.08953,-1.47699 9.57087,-3.60385 2.48134,-2.12686 3.72201,-5.02175 3.84017,-8.80284 -0.11816,-4.13556 -1.47699,-7.08953 -4.19465,-8.86191 -2.71765,-1.71331 -6.3215,-2.5995 -10.69338,-2.54042 -2.36317,0 -4.43095,0 -6.20334,0.0591 -1.7133,0.0591 -3.30845,0.11816 -4.78543,0.17724 v 43.89603 h 5.96702 v -19.67346 h 0.23632 l 14.88802,19.67346 z m -9.09824,-31.9029 c 0,2.36317 -0.88619,4.25372 -2.59949,5.67162 -1.71331,1.41791 -4.19464,2.12686 -7.32585,2.18594 -0.8862,0 -1.65423,-0.0591 -2.3041,-0.0591 -0.5908,0 -1.06343,-0.0591 -1.41791,-0.0591 v -14.9471 c 0.5908,-0.0591 1.24067,-0.0591 1.89054,-0.11816 0.64988,0 1.35883,-0.0591 2.06778,-0.0591 3.19029,0 5.61255,0.53171 7.26678,1.7133 1.59514,1.18159 2.42225,3.07213 2.42225,5.67163"/>
  <path id="path25142" style="fill:#1b5291;fill-rule:nonzero;stroke:#1b5291;stroke-width:2.91000009;stroke-miterlimit:4;stroke-dasharray:none;stroke-opacity:1" d="m 513.36103,795.68203 v -5.02175 H 482.108 v 5.02175 h 12.58392 v 38.87428 h 5.96703 v -38.87428 h 12.70208"/>
  <path id="path25144" style="fill:#1b5291;fill-opacity:1;fill-rule:evenodd;stroke:#1b5291;stroke-width:2.91000009;stroke-miterlimit:4;stroke-dasharray:none;stroke-opacity:1" d="m 35.762758,744.63739 c 0.05908,-2.36318 -0.649874,-4.49004 -2.12686,-6.38058 -1.417907,-1.89055 -3.603847,-3.13121 -6.675978,-3.72201 v -0.11816 c 2.422257,-0.76803 4.3128,-2.12686 5.730706,-3.95832 1.358828,-1.83146 2.126861,-3.89924 2.126861,-6.26242 0,-3.30845 -1.181589,-5.84887 -3.485688,-7.73941 -2.363178,-1.83146 -5.967024,-2.71766 -10.75246,-2.77674 -2.658575,0 -5.080832,0.0591 -7.266772,0.0591 -2.12686,0.0591 -4.0764821,0.11816 -5.6716271,0.11816 v 43.89603 c 2.185939,0 4.2537201,0.0591 6.2624211,0.11816 1.949622,0 3.603847,0.0591 4.903595,0.0591 4.549117,-0.0591 8.034805,-0.82711 10.516142,-2.3041 2.481337,-1.4179 4.194641,-3.19029 5.139912,-5.19899 0.945271,-2.06778 1.358827,-4.0174 1.299748,-5.78978 z m -7.089534,-19.43714 c 0,2.42226 -0.945271,4.3128 -2.835814,5.61255 -1.890542,1.35882 -4.608197,2.0087 -8.212043,2.06778 -0.768033,0 -1.476987,0 -2.12686,-0.0591 -0.649874,0 -1.240669,0 -1.890543,0 v -14.17907 c 0.886192,-0.0591 1.890543,-0.11816 2.894893,-0.11816 1.004351,0 2.008701,-0.0591 3.013052,-0.0591 3.544767,0.0591 5.907945,0.70895 7.266772,1.89054 1.299748,1.24067 1.949622,2.83582 1.890543,4.84452 z m 0.886192,19.61438 c 0,2.42225 -0.827113,4.43095 -2.481337,5.90794 -1.654225,1.53607 -4.3128,2.3041 -7.857567,2.36318 -1.299748,0 -2.422258,-0.0591 -3.367529,-0.11816 -0.945271,-0.0591 -1.654224,-0.11816 -2.245019,-0.23632 v -15.36066 c 0.590795,0 1.299748,0 2.18594,-0.0591 0.827112,0 1.476986,0 1.949622,0 3.426608,0 6.262421,0.53172 8.448361,1.65423 2.18594,1.12251 3.308449,3.07213 3.367529,5.84887"/>
  <path id="path25146" style="fill:#1b5291;fill-opacity:1;fill-rule:nonzero;stroke:#1b5291;stroke-width:2.91000009;stroke-miterlimit:4;stroke-dasharray:none;stroke-opacity:1" d="m 80.190504,740.97446 v -27.11747 h -5.848865 v 27.59011 c 0,4.37188 -0.886192,7.44401 -2.776734,9.33455 -1.831463,1.83146 -4.667277,2.71765 -8.448362,2.65857 -4.371879,-0.0591 -7.266772,-1.1225 -8.743758,-3.19029 -1.536066,-2.0087 -2.245019,-4.60819 -2.126861,-7.7394 V 713.85699 H 46.2789 v 29.12617 c -0.05908,2.65858 0.354477,5.13991 1.181589,7.44401 0.886192,2.36318 2.481337,4.25372 4.903594,5.67163 2.363178,1.47699 5.848866,2.24502 10.338904,2.3041 5.730707,0 10.043507,-1.47699 12.997479,-4.43096 2.953973,-2.89489 4.490038,-7.26677 4.490038,-12.99748"/>
  <path id="path25148" style="fill:#1b5291;fill-rule:nonzero;stroke:#1b5291;stroke-width:2.91000009;stroke-miterlimit:4;stroke-dasharray:none;stroke-opacity:1" d="m 128.34025,757.75302 v -43.89603 h -5.78978 v 12.52485 c 0,2.42225 0.0591,5.13991 0.0591,8.09388 0.0591,2.95397 0.11816,5.73071 0.17723,8.44836 0.0591,2.77674 0.17724,5.02176 0.23632,6.9123 -0.82711,-1.59515 -1.65422,-3.19029 -2.54041,-4.78544 -0.94528,-1.65422 -1.89055,-3.24937 -2.83582,-4.84451 l -16.30593,-26.34944 h -7.857559 v 43.89603 h 5.789782 v -14.11998 c 0,-2.36318 0,-4.96268 -0.0591,-7.79849 0,-2.83581 -0.0591,-5.49439 -0.11815,-8.09389 -0.0591,-2.54041 -0.17724,-4.66727 -0.23632,-6.26242 0.70895,1.47699 1.476977,2.95397 2.245017,4.43096 0.82711,1.53607 1.77238,3.07213 2.77673,4.66728 l 16.66041,27.17654 h 7.79848"/>
  <path id="path25150" style="fill:#1b5291;fill-rule:evenodd;stroke:#1b5291;stroke-width:2.91000009;stroke-miterlimit:4;stroke-dasharray:none;stroke-opacity:1" d="m 177.31712,735.30283 c -0.0591,-7.50309 -2.0087,-12.99748 -5.90795,-16.42408 -3.89924,-3.48569 -9.39363,-5.25807 -16.48316,-5.199 -2.42226,0 -4.78544,0.0591 -7.08954,0.11816 -2.3041,0.0591 -4.3128,0.11816 -6.0261,0.11816 v 43.83695 c 1.59514,0 3.30845,0.0591 5.08083,0.11816 1.83146,0.0591 3.84016,0.11816 6.0261,0.11816 4.84452,0 9.03916,-0.82711 12.70209,-2.54041 3.66292,-1.71331 6.49874,-4.19464 8.56652,-7.56217 2.06778,-3.36753 3.13121,-7.56217 3.13121,-12.58393 z m -6.26242,0.41356 c -0.11816,5.90794 -1.71331,10.27982 -4.9036,13.05656 -3.19029,2.83581 -7.38493,4.19464 -12.58392,4.19464 -0.88619,0 -1.89054,-0.0591 -2.95397,-0.11816 -1.06343,-0.0591 -2.00871,-0.17724 -2.83582,-0.2954 v -33.79344 c 0.82711,-0.0591 1.83147,-0.11816 3.01305,-0.11816 1.18159,-0.0591 2.36318,-0.0591 3.54477,-0.11816 5.67163,0.0591 9.86627,1.47699 12.643,4.43096 2.71766,2.89489 4.07649,7.14861 4.07649,12.76116"/>
  <path id="path25152" style="fill:#1b5291;fill-rule:nonzero;stroke:#1b5291;stroke-width:2.91000009;stroke-miterlimit:4;stroke-dasharray:none;stroke-opacity:1" d="m 209.86989,757.75302 v -5.02175 h -16.54224 v -15.18342 h 15.77421 v -4.84451 h -15.77421 v -13.88367 h 16.54224 v -4.96268 h -22.50927 v 43.89603 h 22.50927"/>
  <path id="path25154" style="fill:#1b5291;fill-rule:nonzero;stroke:#1b5291;stroke-width:2.91000009;stroke-miterlimit:4;stroke-dasharray:none;stroke-opacity:1" d="m 245.25848,744.81463 c -0.11815,-3.36753 -1.18158,-5.84887 -3.13121,-7.56217 -1.94962,-1.65423 -4.25372,-2.95398 -6.79413,-3.89925 -2.5995,-0.94527 -4.84452,-2.0087 -6.85322,-3.13121 -1.94962,-1.18159 -2.95397,-2.89489 -3.07213,-5.19899 0,-2.06778 0.76803,-3.72201 2.3041,-4.9036 1.53606,-1.24066 3.78108,-1.89054 6.79413,-1.89054 1.29975,0 2.65858,0.11816 4.01741,0.2954 1.35882,0.23632 2.65857,0.53171 3.89924,0.88619 l 0.35448,-5.31715 c -1.29975,-0.2954 -2.5995,-0.47263 -3.95833,-0.59079 -1.29974,-0.11816 -2.65857,-0.23632 -3.95832,-0.23632 -4.96267,0.11816 -8.80284,1.24067 -11.52049,3.54477 -2.71766,2.24501 -4.07648,5.19899 -4.07648,8.92099 0.0591,3.36753 1.12251,5.90795 3.07213,7.62125 1.94962,1.65423 4.19464,2.95397 6.79413,3.84017 2.54042,0.94527 4.84452,2.0087 6.79414,3.13121 1.94962,1.18159 2.95397,2.95397 3.07213,5.31715 -0.0591,2.71765 -1.00435,4.60819 -2.83581,5.78978 -1.83146,1.18159 -4.07648,1.77239 -6.79414,1.77239 -1.53606,0 -3.13121,-0.17724 -4.72635,-0.47264 -1.53607,-0.2954 -3.01306,-0.70895 -4.3128,-1.18159 l -0.2954,5.73071 c 1.24067,0.35448 2.65857,0.59079 4.13556,0.76803 1.53607,0.17724 3.07213,0.2954 4.66728,0.2954 5.19899,-0.11816 9.15731,-1.35883 12.05221,-3.84017 2.83581,-2.48133 4.3128,-5.67162 4.37187,-9.68902"/>
  <path id="path25156" style="fill:#1b5291;fill-rule:evenodd;stroke:#1b5291;stroke-width:2.91000009;stroke-miterlimit:4;stroke-dasharray:none;stroke-opacity:1" d="m 288.9182,757.75302 -16.12869,-43.89603 h -6.6169 l -16.01053,43.89603 h 6.14426 l 3.60385,-10.27982 h 18.6691 l 3.60385,10.27982 z m -11.99313,-15.00618 h -15.41974 l 5.61255,-15.59697 c 0.41356,-1.12251 0.82711,-2.24502 1.18159,-3.36753 0.2954,-1.12251 0.59079,-2.18594 0.82711,-3.24937 h 0.17724 c 0.23632,1.12251 0.53172,2.18594 0.82711,3.24937 0.2954,1.12251 0.70896,2.18594 1.12251,3.30845 l 5.67163,15.65605"/>
  <path id="path25158" style="fill:#1b5291;fill-rule:nonzero;stroke:#1b5291;stroke-width:2.91000009;stroke-miterlimit:4;stroke-dasharray:none;stroke-opacity:1" d="m 345.39815,757.75302 -6.67598,-43.89603 h -7.38493 l -9.57087,28.00366 c -0.47263,1.53607 -0.94527,2.95398 -1.29975,4.19464 -0.35447,1.29975 -0.70895,2.65858 -1.00435,4.13556 h -0.11816 c -0.29539,-1.29974 -0.64987,-2.65857 -1.06343,-4.13556 -0.41355,-1.4179 -0.88619,-2.95397 -1.4179,-4.54911 l -9.2164,-27.64919 h -7.38493 l -6.43966,43.89603 h 6.14427 l 2.95397,-24.75428 c 0.2954,-2.12687 0.53171,-4.13557 0.70895,-5.96703 0.23632,-1.83146 0.41356,-3.66293 0.53172,-5.43531 h 0.0591 c 0.29539,1.47699 0.70895,3.07213 1.18158,4.72636 0.53172,1.7133 1.06343,3.42661 1.65423,5.08083 l 8.86192,26.34943 h 6.38058 l 9.39363,-28.23997 c 0.53172,-1.53607 0.94527,-3.01305 1.29975,-4.3128 0.35447,-1.35883 0.64987,-2.54042 0.88619,-3.60385 h 0.11816 c 0.11816,1.29975 0.2954,2.77674 0.53171,4.49004 0.17724,1.7133 0.47264,3.84016 0.82712,6.3215 l 3.722,25.34508 h 6.3215"/>
  <path id="path25160" style="fill:#1b5291;fill-rule:nonzero;stroke:#1b5291;stroke-width:2.91000009;stroke-miterlimit:4;stroke-dasharray:none;stroke-opacity:1" d="m 380.78674,718.87875 v -5.02176 h -31.25303 v 5.02176 h 12.58393 v 38.87427 h 5.96702 v -38.87427 h 12.70208"/>
  <path id="path25162" style="fill:#1b5291;fill-rule:nonzero;stroke:#1b5291;stroke-width:2.91000009;stroke-miterlimit:4;stroke-dasharray:none;stroke-opacity:1" d="m 427.51859,718.81967 v -4.96268 h -22.33203 v 43.89603 h 5.96702 v -19.90977 h 15.5379 v -4.78544 h -15.5379 v -14.23814 h 16.36501"/>
  <path id="path25164" style="fill:#1b5291;fill-rule:evenodd;stroke:#1b5291;stroke-width:2.91000009;stroke-miterlimit:4;stroke-dasharray:none;stroke-opacity:1" d="m 470.94198,740.97446 v -27.11747 h -5.84886 v 27.59011 c 0,4.37188 -0.88619,7.44401 -2.77674,9.33455 -1.83146,1.83146 -4.66727,2.71765 -8.50744,2.65857 -4.3128,-0.0591 -7.20769,-1.1225 -8.68468,-3.19029 -1.53606,-2.0087 -2.24502,-4.60819 -2.12686,-7.7394 v -28.65354 h -5.96702 v 29.12617 c -0.0591,2.65858 0.35448,5.13991 1.18159,7.44401 0.88619,2.36318 2.48134,4.25372 4.90359,5.67163 2.36318,1.47699 5.78979,2.24502 10.33891,2.3041 5.7307,0 10.10258,-1.47699 13.05655,-4.43096 2.95398,-2.89489 4.43096,-7.26677 4.43096,-12.99748 z m -7.85756,-34.73872 c -0.0591,-1.00435 -0.35448,-1.83146 -1.00435,-2.48133 -0.64988,-0.70896 -1.47699,-1.00435 -2.48134,-1.06343 -0.94527,0.0591 -1.77238,0.35447 -2.48134,1.06343 -0.64987,0.64987 -0.94527,1.47698 -1.00435,2.48133 0.0591,0.94528 0.35448,1.77239 1.00435,2.42226 0.70896,0.64988 1.53607,0.94527 2.48134,1.00435 1.00435,-0.0591 1.83146,-0.35447 2.48134,-1.00435 0.64987,-0.64987 0.94527,-1.47698 1.00435,-2.42226 z m -12.52485,0 c 0,-1.00435 -0.29539,-1.83146 -0.94527,-2.48133 -0.64987,-0.70896 -1.47698,-1.00435 -2.48133,-1.06343 -1.00436,0.0591 -1.83147,0.35447 -2.48134,1.06343 -0.64988,0.64987 -1.00435,1.47698 -1.00435,2.48133 0,0.94528 0.35447,1.77239 1.00435,2.42226 0.64987,0.64988 1.47698,0.94527 2.48134,1.00435 1.00435,-0.0591 1.83146,-0.35447 2.48133,-1.00435 0.64988,-0.64987 0.94527,-1.47698 0.94527,-2.42226"/>
  <path id="path25166" style="fill:#1b5291;fill-rule:evenodd;stroke:#1b5291;stroke-width:2.91000009;stroke-miterlimit:4;stroke-dasharray:none;stroke-opacity:1" d="m 512.94747,757.75302 -12.40668,-15.65605 c -0.5908,-0.76803 -1.24067,-1.53607 -1.89054,-2.3041 -0.64988,-0.82711 -1.29975,-1.59514 -1.94963,-2.36318 3.89925,-0.29539 7.08954,-1.47698 9.57087,-3.60384 2.42226,-2.12686 3.72201,-5.02176 3.78109,-8.80284 -0.0591,-4.13556 -1.47699,-7.08953 -4.19464,-8.86192 -2.71766,-1.7133 -6.26242,-2.59949 -10.69338,-2.54041 -2.36318,0 -4.43096,0 -6.14426,0.0591 -1.71331,0.0591 -3.36753,0.11816 -4.78544,0.17724 v 43.89603 h 5.96702 V 738.0796 h 0.23632 l 14.88802,19.67345 z m -9.09823,-31.9029 c -0.0591,2.36318 -0.88619,4.25372 -2.5995,5.67163 -1.77238,1.41791 -4.19464,2.12686 -7.38493,2.18594 -0.88619,0 -1.59514,-0.0591 -2.24502,-0.0591 -0.64987,0 -1.12251,-0.0591 -1.41791,-0.0591 v -14.9471 c 0.53172,-0.0591 1.18159,-0.11816 1.83147,-0.11816 0.64987,0 1.35882,-0.0591 2.12686,-0.0591 3.19029,0 5.55347,0.53172 7.20769,1.7133 1.65422,1.18159 2.48134,3.07214 2.48134,5.67163"/>
  <path id="path25168" style="fill:#ffffff;fill-rule:evenodd;stroke:none;stroke-width:5.90794516" d="m 300.67501,375.80438 c -3.24937,-1.83146 -6.67598,-2.65857 -10.22075,-2.48134 -3.60384,0.23632 -6.73505,1.41791 -9.39363,3.72201 l -0.2954,-0.17724 c 0.11816,-3.36753 -0.59079,-6.49874 -2.12686,-9.39363 -1.53606,-2.8949 -3.78108,-5.25807 -6.73505,-6.97138 -5.73071,-3.24937 -11.2251,-3.60384 -16.42409,-1.06343 -5.13991,2.54042 -9.80719,7.44401 -13.94275,14.59263 -1.59515,2.77673 -3.30845,5.78978 -5.08083,8.98007 -1.83147,3.24937 -3.54477,6.38058 -5.199,9.45272 -1.65422,3.07213 -3.07213,5.7307 -4.19464,8.0348 l 65.46003,37.86993 c 3.24937,-5.55347 5.96703,-10.22075 8.21205,-13.94275 2.18594,-3.72201 3.89924,-6.6169 5.08083,-8.6256 5.25807,-9.45271 7.26677,-17.60568 5.96703,-24.45889 -1.35883,-6.85322 -5.02176,-12.05221 -11.10694,-15.5379 z m -37.04282,5.55347 c 1.94963,1.06343 3.07213,2.65857 3.36753,4.6082 0.35448,2.0087 -0.2954,4.43095 -1.89054,7.26677 -0.47264,0.76803 -0.88619,1.47698 -1.24067,2.12686 -0.41355,0.59079 -0.76803,1.18159 -1.12251,1.7133 l -11.10693,-6.43966 c 0.41355,-0.76803 0.82711,-1.59514 1.24066,-2.48133 0.47264,-0.82712 0.94527,-1.77239 1.53607,-2.77674 1.29975,-2.18594 2.65857,-3.60385 4.25372,-4.37188 1.59514,-0.70895 3.24937,-0.59079 4.96267,0.35448 z m 25.99496,14.06091 c 2.0087,1.24067 3.13121,2.89489 3.30845,4.96267 0.17724,2.06778 -0.41356,4.3128 -1.83146,6.79414 -0.47264,0.82711 -0.94527,1.65422 -1.47699,2.48134 -0.53171,0.82711 -1.00435,1.53606 -1.41791,2.06778 l -11.99312,-6.85322 c 0.35447,-0.64987 0.76803,-1.53607 1.35882,-2.54042 0.5908,-1.06343 1.00435,-1.77238 1.24067,-2.24502 1.71331,-2.77673 3.42661,-4.49003 5.31715,-5.13991 1.94962,-0.70895 3.72201,-0.53171 5.49439,0.47264"/>
  <path id="path25170" style="fill:#ffffff;fill-rule:nonzero;stroke:none;stroke-width:5.90794516" d="m 327.7334,327.18199 c -5.13992,-2.77673 -9.68903,-3.722 -13.70644,-2.83581 -4.0174,0.94527 -7.62124,2.5995 -10.75246,5.02175 -3.19029,2.48134 -5.96702,4.54912 -8.50744,6.38058 -2.48133,1.77239 -4.72635,2.18594 -6.79413,1.18159 -1.29975,-0.76803 -2.06778,-1.94962 -2.24502,-3.60384 -0.17724,-1.65423 0.41355,-3.72201 1.83146,-6.26243 1.18159,-2.0087 2.48134,-3.84016 3.89924,-5.61254 1.41791,-1.77239 2.95398,-3.42661 4.6082,-5.02176 l -15.06526,-10.0435 c -1.53606,1.89054 -3.01305,3.84016 -4.43096,5.84886 -1.4179,2.0087 -2.59949,3.84017 -3.54476,5.49439 -4.96268,8.74376 -6.9123,16.60133 -5.84887,23.51362 1.06343,6.9123 4.90359,12.28853 11.46141,16.18777 5.55347,3.01305 10.39799,4.07648 14.47447,3.24937 4.0174,-0.88619 7.56217,-2.59949 10.6343,-5.13991 3.01305,-2.48134 5.73071,-4.66728 8.15296,-6.43966 2.48134,-1.83146 4.84452,-2.18594 7.2077,-0.94527 1.53606,0.88619 2.3041,2.18594 2.42225,3.95832 0.11816,1.77238 -0.41355,3.78109 -1.7133,6.0261 -1.47699,2.54042 -3.13121,4.9036 -5.02175,7.08954 -1.89055,2.24502 -3.66293,4.07648 -5.37623,5.55347 l 15.95145,10.51614 c 1.77238,-1.94962 3.36753,-3.95832 4.90359,-6.14426 1.53607,-2.12686 2.95398,-4.37188 4.25372,-6.6169 4.96268,-8.86192 6.73506,-17.01488 5.31715,-24.39981 -1.4179,-7.38494 -5.49438,-12.99748 -12.11128,-16.95581"/>
  <path id="path25172" style="fill:#ffffff;fill-rule:nonzero;stroke:none;stroke-width:5.90794516" d="m 385.2177,277.85065 -65.63727,-37.86993 -10.39798,18.07832 23.92718,13.82459 -11.34326,19.61438 -23.92717,-13.8246 -10.45707,18.07832 65.63727,37.86992 10.39798,-18.01923 -25.81772,-14.9471 11.34326,-19.67346 25.81772,14.9471 10.45706,-18.07831"/>
<script xmlns=""/></svg>